# xmcd CD database file
#
# Track frame offsets:
#	150
#	14538
#	25961
#	40991
#	53301
#	64355
#	76997
#	91173
#	106212
#	118172
#	132832
#	147014
#	160033
#	174358
#
# Disc length: 2491 seconds
#
# Revision: 0
# Processed by: cddbd v1.4PL0 Copyright (c) Steve Scherf et al.
# Submitted via: CDex 1.50beta10
#
DISCID=ac09b90e
DTITLE=Ella Fitzgerald - Ella Fitzgerald CD2
DYEAR=2000
DGENRE=Jazz
TTITLE0=HOW HIGH THE MOON
TTITLE1=IT'S ONLY A PAPER MOON
TTITLE2=LOVE AND KISSES
TTITLE3=BILLY
TTITLE4=FLYING HOME
TTITLE5=ELLA
TTITLE6=COOCHI COOCHI COO
TTITLE7=I'M JUST A JITTERBUG
TTITLE8=WHEN MY SUGAR WALKS DOWN THE STREET
TTITLE9=DIPSY DOODLE
TTITLE10=LOUISVILLE K-Y
TTITLE11=WOE IS ME
TTITLE12=YOU'RE GONNA LOSE YOUR GAL
TTITLE13=BIG BOY BLUE
EXTD=YEAR: 2000
EXTT0=
EXTT1=
EXTT2=
EXTT3=
EXTT4=
EXTT5=
EXTT6=
EXTT7=
EXTT8=
EXTT9=
EXTT10=
EXTT11=
EXTT12=
EXTT13=
PLAYORDER=
